<?xml version="1.0" standalone="no"?>
<!DOCTYPE svg PUBLIC "-//W3C//DTD SVG 20010904//EN"
 "http://www.w3.org/TR/2001/REC-SVG-20010904/DTD/svg10.dtd">
<svg version="1.0" xmlns="http://www.w3.org/2000/svg"
 width="500.000000pt" height="500.000000pt" viewBox="0 0 500.000000 500.000000"
 preserveAspectRatio="xMidYMid meet">

<g transform="translate(0.000000,500.000000) scale(0.100000,-0.100000)"
fill="#000000" stroke="none">
<path d="M1571 3559 c-29 -5 -95 -23 -144 -40 -379 -126 -619 -469 -657 -934
-31 -393 100 -644 387 -741 169 -57 492 -42 753 36 l65 19 89 423 c49 233 92
433 94 446 l4 22 -329 0 -329 0 -28 -137 c-16 -76 -31 -144 -34 -150 -3 -10
31 -13 152 -13 100 0 156 -4 156 -10 0 -31 -74 -336 -83 -342 -23 -15 -174
-30 -240 -25 -139 12 -232 80 -274 200 -28 82 -26 334 5 442 77 271 242 448
468 501 132 31 303 6 443 -65 23 -12 45 -21 47 -19 2 2 32 68 68 146 l65 142
-27 14 c-55 28 -172 65 -252 80 -90 17 -308 20 -399 5z"/>
<path d="M2705 3538 c-7 -24 -355 -1683 -355 -1695 0 -10 102 -13 474 -13 443
0 475 1 480 18 9 28 56 256 56 269 0 10 -70 13 -298 15 l-298 3 46 220 47 220
281 3 c155 1 282 4 282 5 0 2 14 65 30 140 17 76 30 140 30 142 0 3 -126 5
-280 5 l-280 0 5 23 c3 12 19 87 35 167 17 80 32 155 35 167 l5 23 302 2 302
3 27 130 c16 72 28 138 29 148 0 16 -29 17 -475 17 -372 0 -477 -3 -480 -12z"/>
<path d="M4035 3528 c-3 -13 -84 -393 -180 -846 -124 -588 -182 -840 -201
-883 -34 -75 -104 -141 -169 -159 -45 -13 -201 -9 -253 6 l-23 6 3 -148 3
-149 55 -13 c73 -17 307 -10 373 12 172 56 288 179 358 383 17 51 389 1771
389 1801 0 9 -48 12 -175 12 -173 0 -175 0 -180 -22z"/>
<path d="M1157 1603 c-13 -12 -7 -23 13 -23 11 0 20 7 20 15 0 15 -21 21 -33
8z"/>
<path d="M1620 1591 c0 -37 -11 -53 -27 -40 -11 10 -20 8 -41 -8 -33 -25 -49
-74 -34 -107 9 -21 18 -24 56 -24 l45 1 11 56 c6 31 16 72 21 91 12 48 12 50
-11 50 -13 0 -20 -7 -20 -19z m-22 -95 c4 -30 -12 -56 -34 -56 -17 0 -19 43
-3 71 14 27 33 19 37 -15z"/>
<path d="M2727 1603 c-4 -3 -7 -19 -7 -35 0 -30 -9 -35 -27 -17 -9 9 -18 8
-37 -4 -32 -21 -50 -75 -37 -110 9 -24 15 -26 56 -25 37 2 47 6 50 23 3 11 12
49 20 85 8 36 15 71 15 78 0 13 -22 17 -33 5z m-23 -89 c8 -22 -15 -68 -37
-72 -22 -4 -23 35 -1 66 18 26 30 28 38 6z"/>
<path d="M769 1572 c-24 -21 -32 -39 -36 -74 -7 -59 18 -88 77 -88 43 0 52 10
65 68 6 31 6 32 -29 32 -39 0 -45 -7 -20 -24 24 -18 7 -48 -25 -44 -22 3 -26
9 -29 39 -4 52 30 92 74 87 20 -2 35 1 38 8 7 18 -4 24 -46 24 -27 0 -46 -8
-69 -28z"/>
<path d="M2000 1596 c0 -8 -30 -151 -36 -169 -5 -16 0 -18 47 -15 57 3 84 28
30 28 -26 0 -31 4 -31 25 0 22 4 25 35 25 24 0 35 5 35 15 0 9 -9 15 -23 15
-30 0 -36 6 -30 31 4 14 14 19 39 19 24 0 34 5 34 15 0 11 -12 15 -50 15 -27
0 -50 -2 -50 -4z"/>
<path d="M2311 1554 c-13 -13 -20 -24 -14 -24 6 0 10 -24 9 -57 -1 -56 0 -58
27 -61 19 -2 27 1 27 12 0 9 -7 16 -15 16 -13 0 -15 7 -9 38 9 48 11 52 35 52
26 0 24 16 -2 23 -12 3 -18 10 -14 16 12 20 -20 9 -44 -15z"/>
<path d="M1267 1540 c-30 -24 -44 -78 -28 -108 8 -16 20 -20 55 -20 l45 1 12
56 c6 30 14 62 17 70 4 11 -1 12 -21 7 -14 -3 -29 -2 -32 4 -9 15 -19 12 -48
-10z m51 -44 c4 -30 -12 -56 -34 -56 -17 0 -19 43 -3 71 14 27 33 19 37 -15z"/>
<path d="M1745 1548 c-32 -17 -45 -39 -45 -79 0 -44 18 -61 61 -57 44 4 49 26
8 30 -36 3 -53 28 -20 28 11 0 32 5 46 12 30 14 34 53 6 68 -24 12 -31 12 -56
-2z m43 -30 c-6 -16 -36 -34 -44 -25 -9 9 15 37 33 37 8 0 13 -5 11 -12z"/>
<path d="M2168 1549 c-25 -14 -22 -55 3 -73 30 -21 18 -49 -17 -40 -20 5 -26
3 -22 -7 6 -18 51 -23 78 -9 28 15 26 54 -5 74 -28 19 -24 41 6 33 17 -5 37 9
27 18 -10 11 -55 13 -70 4z"/>
<path d="M2847 1553 c-21 -6 -47 -53 -47 -87 0 -72 94 -75 119 -5 15 44 14 56
-9 79 -20 20 -29 22 -63 13z m38 -63 c0 -38 -29 -65 -44 -41 -16 25 10 86 33
78 6 -2 11 -19 11 -37z"/>
<path d="M3013 1550 c-32 -13 -30 -55 2 -76 20 -13 23 -20 14 -30 -7 -9 -21
-11 -36 -7 -19 4 -24 2 -21 -8 6 -18 65 -24 84 -8 22 18 17 57 -11 75 -29 19
-23 38 11 31 27 -5 34 17 8 27 -19 7 -23 7 -51 -4z"/>
<path d="M954 1535 c-4 -9 -7 -39 -8 -68 -1 -47 1 -52 22 -55 13 -2 30 2 38 8
10 9 14 9 14 1 0 -6 6 -11 14 -11 12 0 36 85 36 127 0 31 -28 10 -39 -29 -14
-56 -25 -72 -44 -65 -12 5 -13 13 -6 44 5 21 9 44 9 51 0 17 -29 15 -36 -3z"/>
<path d="M1147 1543 c-9 -15 -29 -125 -23 -130 14 -14 34 10 40 49 4 23 9 53
13 66 4 16 1 22 -10 22 -9 0 -18 -3 -20 -7z"/>
<path d="M2444 1535 c-4 -9 -7 -39 -8 -68 -1 -47 1 -52 22 -55 13 -2 30 2 38
8 10 9 14 9 14 1 0 -6 6 -11 14 -11 12 0 36 85 36 127 0 31 -28 10 -39 -29
-14 -56 -25 -72 -44 -65 -12 5 -13 13 -6 44 5 21 9 44 9 51 0 17 -29 15 -36
-3z"/>
<path d="M2740 1354 c0 -9 7 -14 17 -12 25 5 28 28 4 28 -12 0 -21 -6 -21 -16z"/>
<path d="M2255 1348 c-2 -7 -9 -38 -15 -68 -25 -117 -30 -130 -50 -130 -25 0
-36 -18 -16 -26 24 -9 63 4 70 22 7 18 46 193 46 206 0 13 -30 9 -35 -4z"/>
<path d="M2592 1304 c-12 -8 -22 -10 -22 -5 0 6 -6 11 -14 11 -8 0 -17 -21
-25 -57 -14 -73 -14 -83 3 -83 9 0 19 19 26 50 13 53 34 80 51 63 7 -7 6 -25
-2 -57 -12 -50 -9 -62 15 -53 20 8 33 112 16 132 -16 19 -20 19 -48 -1z"/>
<path d="M2865 1310 c-70 -28 -66 -140 5 -140 60 0 96 101 48 134 -25 18 -25
18 -53 6z m40 -39 c9 -29 -12 -71 -35 -71 -15 0 -20 7 -20 29 0 28 22 61 40
61 5 0 11 -8 15 -19z"/>
<path d="M3061 1303 c-14 -9 -21 -11 -17 -5 4 7 1 12 -8 12 -9 0 -18 -12 -22
-27 -3 -16 -10 -44 -15 -63 -12 -48 -12 -50 11 -50 13 0 20 7 20 20 0 39 28
90 49 90 14 0 21 7 21 20 0 24 -8 25 -39 3z"/>
<path d="M2346 1273 c-14 -91 -1 -117 49 -95 17 8 25 8 27 0 2 -6 9 -9 15 -5
11 7 37 126 29 134 -13 13 -34 -9 -39 -42 -7 -42 -23 -65 -44 -65 -15 0 -13
36 3 93 4 12 0 17 -14 17 -15 0 -21 -9 -26 -37z"/>
<path d="M2720 1253 c-6 -32 -13 -64 -15 -70 -3 -8 4 -13 15 -13 11 0 20 6 20
13 1 6 7 38 14 70 13 54 13 57 -4 57 -15 0 -21 -12 -30 -57z"/>
</g>
</svg>
