<?xml version="1.0" standalone="no"?>
<!DOCTYPE svg PUBLIC "-//W3C//DTD SVG 20010904//EN"
 "http://www.w3.org/TR/2001/REC-SVG-20010904/DTD/svg10.dtd">
<svg version="1.0" xmlns="http://www.w3.org/2000/svg"
 width="452.000000pt" height="254.000000pt" viewBox="0 0 452.000000 254.000000"
 preserveAspectRatio="xMidYMid meet">

<g transform="translate(0.000000,254.000000) scale(0.100000,-0.100000)"
fill="#000000" stroke="none">
<path d="M1325 2449 c-366 -50 -638 -261 -774 -601 -100 -250 -118 -575 -44
-782 67 -185 211 -311 401 -351 89 -19 339 -19 467 0 97 15 273 60 287 73 7 8
188 848 188 875 0 16 -29 17 -323 17 l-324 0 -27 -127 c-16 -71 -30 -138 -33
-150 l-5 -23 156 0 c86 0 156 -3 156 -7 0 -5 -18 -84 -38 -177 -43 -193 -31
-178 -165 -197 -198 -28 -339 40 -399 191 -20 49 -22 73 -22 210 1 183 18 260
90 409 36 74 61 109 122 171 123 124 246 175 417 174 100 -1 185 -20 284 -65
35 -16 68 -26 72 -22 4 5 35 68 69 142 47 103 58 136 48 142 -30 19 -181 69
-254 84 -98 20 -257 27 -349 14z"/>
<path d="M2397 2403 c-24 -118 -349 -1652 -353 -1665 -5 -17 22 -18 473 -18
l479 0 30 145 30 145 -298 0 c-254 0 -298 2 -298 15 0 14 76 384 86 418 5 16
27 17 284 17 l280 0 5 23 c16 66 55 251 55 259 0 4 -122 8 -270 8 -227 0 -272
2 -276 15 -5 13 60 347 72 366 3 5 140 9 305 9 232 0 299 3 299 13 0 6 13 72
29 145 l29 132 -478 0 -477 0 -6 -27z"/>
<path d="M3561 1607 c-96 -452 -183 -848 -194 -880 -28 -85 -74 -145 -137
-181 -49 -28 -64 -31 -135 -31 -44 0 -106 4 -138 8 l-58 9 3 -144 3 -143 50
-14 c73 -20 274 -18 354 3 203 55 327 190 396 432 24 87 375 1722 375 1750 0
12 -30 14 -172 14 l-173 0 -174 -823z"/>
<path d="M852 478 c6 -18 28 -21 28 -4 0 9 -7 16 -16 16 -9 0 -14 -5 -12 -12z"/>
<path d="M1315 460 c-6 -26 -10 -29 -34 -24 -40 8 -73 -35 -69 -90 l3 -41 47
-1 c54 -1 50 -7 73 104 18 89 18 82 1 82 -8 0 -17 -13 -21 -30z m-17 -76 c4
-26 -30 -70 -46 -60 -27 16 -4 90 26 84 9 -2 18 -13 20 -24z"/>
<path d="M2416 460 c-5 -26 -9 -30 -30 -24 -44 11 -86 -54 -72 -110 5 -22 11
-25 54 -24 l48 1 17 82 c21 100 21 105 3 105 -7 0 -16 -14 -20 -30z m-16 -78
c0 -37 -22 -67 -44 -59 -30 12 -10 87 24 87 15 0 20 -7 20 -28z"/>
<path d="M464 457 c-20 -18 -28 -35 -31 -73 -7 -64 11 -84 72 -84 50 0 50 0
60 58 7 42 7 42 -24 42 -21 0 -31 -5 -31 -15 0 -8 5 -15 10 -15 15 0 12 -40
-4 -46 -24 -9 -56 15 -56 41 0 56 43 98 94 92 10 -1 21 4 23 11 9 23 -83 15
-113 -11z"/>
<path d="M1695 468 c-5 -16 -35 -155 -35 -162 0 -4 23 -6 50 -6 53 0 70 16 23
22 -22 2 -28 8 -28 28 0 21 5 26 33 28 39 4 45 32 6 32 -21 0 -25 4 -22 23 2
17 11 23 36 25 49 5 38 22 -13 22 -28 0 -47 -5 -50 -12z"/>
<path d="M2015 446 c-28 -31 -29 -139 -2 -144 10 -2 26 -1 35 3 15 6 14 8 -5
16 -13 4 -21 14 -19 21 3 7 7 25 10 39 3 15 15 29 26 32 23 6 27 27 5 27 -8 0
-15 7 -15 15 0 20 -11 17 -35 -9z"/>
<path d="M655 429 c-4 -6 -9 -37 -12 -69 l-6 -59 52 2 51 2 14 60 c13 59 9 84
-13 71 -6 -4 -11 -16 -11 -27 0 -34 -28 -89 -46 -89 -14 0 -16 8 -10 60 7 56
-2 78 -19 49z"/>
<path d="M841 417 c-5 -13 -12 -45 -16 -70 -6 -38 -4 -47 7 -47 14 0 38 82 38
127 0 22 -20 15 -29 -10z"/>
<path d="M950 413 c-15 -20 -20 -38 -18 -67 l3 -41 50 0 49 0 13 64 c14 69 12
81 -11 62 -10 -8 -16 -9 -21 -1 -11 19 -43 10 -65 -17z m68 -29 c4 -26 -30
-70 -46 -60 -27 16 -4 90 26 84 9 -2 18 -13 20 -24z"/>
<path d="M1427 420 c-30 -24 -43 -70 -27 -99 8 -16 21 -21 50 -21 45 0 55 17
13 22 -40 4 -45 38 -6 38 35 0 53 16 53 46 0 38 -43 45 -83 14z m53 -15 c0
-17 -22 -29 -41 -23 -8 3 -6 9 5 21 22 21 36 22 36 2z"/>
<path d="M1856 425 c-23 -23 -20 -40 11 -63 30 -22 24 -42 -13 -42 -13 0 -24
-4 -24 -10 0 -11 49 -14 74 -4 22 9 20 44 -5 70 -24 26 -17 48 13 38 15 -4 19
-2 16 7 -7 20 -53 23 -72 4z"/>
<path d="M2145 429 c-4 -6 -9 -37 -12 -69 l-6 -59 52 2 c43 2 53 6 56 22 19
85 22 106 14 111 -14 8 -29 -5 -29 -27 0 -34 -28 -89 -46 -89 -14 0 -16 8 -10
60 7 56 -2 78 -19 49z"/>
<path d="M2521 416 c-17 -18 -22 -33 -19 -67 3 -37 7 -44 27 -47 39 -6 67 6
79 33 37 80 -30 142 -87 81z m67 -32 c4 -26 -30 -70 -46 -60 -16 9 -15 59 0
74 18 18 42 10 46 -14z"/>
<path d="M2696 424 c-22 -21 -20 -31 9 -58 33 -31 32 -46 -5 -46 -16 0 -30 -5
-30 -11 0 -6 17 -9 41 -7 33 2 44 8 50 26 7 18 4 28 -17 47 -26 24 -24 51 3
41 21 -8 39 4 22 15 -22 14 -56 10 -73 -7z"/>
<path d="M2440 234 c0 -17 22 -14 28 4 2 7 -3 12 -12 12 -9 0 -16 -7 -16 -16z"/>
<path d="M1929 138 c-21 -90 -27 -103 -46 -106 -26 -4 -30 -20 -8 -28 33 -13
63 23 78 93 29 127 31 143 15 143 -10 0 -22 -32 -39 -102z"/>
<path d="M2056 192 c-11 -18 -26 -102 -20 -116 4 -11 19 -15 54 -14 l47 1 12
49 c6 27 11 59 11 70 0 34 -24 14 -35 -30 -12 -50 -41 -84 -54 -63 -5 7 -5 29
0 50 5 20 9 42 9 49 0 14 -16 16 -24 4z"/>
<path d="M2230 143 c-7 -32 -15 -64 -18 -71 -3 -10 1 -13 14 -10 12 2 21 16
26 42 10 45 24 66 45 66 13 0 14 -10 8 -55 -5 -44 -4 -55 8 -55 16 0 27 41 27
97 0 39 -22 53 -53 33 -15 -9 -22 -10 -25 -1 -9 26 -21 8 -32 -46z"/>
<path d="M2424 173 c-3 -16 -10 -44 -15 -63 -12 -47 -11 -50 6 -50 8 0 17 10
20 23 18 78 22 107 17 112 -12 12 -22 4 -28 -22z"/>
<path d="M2541 183 c-26 -22 -39 -86 -21 -108 19 -23 76 -19 94 7 23 33 21 95
-3 108 -28 14 -46 13 -70 -7z m59 -41 c0 -37 -22 -67 -44 -59 -30 12 -10 87
24 87 15 0 20 -7 20 -28z"/>
<path d="M2716 189 c-8 -26 -26 -108 -26 -118 0 -6 6 -11 13 -11 8 0 20 21 28
48 9 31 22 50 37 57 12 5 22 15 22 22 0 16 -12 17 -28 1 -8 -8 -15 -8 -26 2
-13 10 -17 10 -20 -1z"/>
</g>
</svg>
